<?xml version="1.0" encoding="UTF-8"?><svg id="Layer_6" xmlns="http://www.w3.org/2000/svg" viewBox="0 0 1920 1080"><defs><style>.cls-1{fill:#c0a696;}.cls-2{fill:#af8f7b;}.cls-3{fill:#bb9f8e;}.cls-4{fill:#faf9f8;}.cls-5{fill:#ad8c77;}.cls-6{fill:#c8b2a4;}.cls-7{fill:#ad8b76;}.cls-8{fill:#ad8b77;}.cls-9{fill:#fefefe;}</style></defs><path class="cls-5" d="M1103.93,305.22c.84-1.32,2.25-2.59,2.39-3.98,.19-1.84-.62-3.77-1.07-5.97,6.45-.6,6.22-6.3,7.79-10.31,1.36-3.47,2.91-4.53,6.26-3,.63,.29,1.42,.33,2.13,.3,1.9-.07,3.8-.23,5.71-.36-.47,1.94-.94,3.87-1.48,6.1,1.4,.6,3.12,1.34,4.83,2.07l-1.06,.42c1.69,3.22,2.74,7.07,5.19,9.53,5.36,5.38,4.09,12.25,4.45,18.37,.38,6.46-1.62,13.07-2.65,20.11,1.1-.62,1.93-1.08,3.69-2.07-1.52,5.79-2.9,10.79-4.12,15.83-.25,1.05,.09,2.24,.17,3.65,1.4-.29,2.47-.51,3.51-.72,2.06,2.02,.36,14.71-1.97,16.88,.97,1.25,2.5,2.35,2.74,3.68,.94,5.38,1.95,10.82,2.04,16.25,.09,5.89-2.89,12.72-.77,17.46,2.76,6.17,2.95,12.23,2.01,17.75-1.73,10.27,3.41,19.36,3.04,29.28-.2,5.31,1.36,10.7,2.21,16.04,.48,3.01,2.12,5.34-1.68,8.5-2.04,1.7-1.7,9.25,.36,12.26,3.96,5.81,4.1,11.6,3.7,16.48,1.96,2.09,3.91,3.2,4.18,4.62,1.55,8.24,2.77,16.55,3.92,24.86,.16,1.14-.52,2.5-1.1,3.61-1.05,2.01-3.06,4.02,1.45,4.28,.74,.04,1.79,2,1.96,3.17,.67,4.59,1.05,9.22,1.53,13.84l-.21,.24c-3.96,2.34-3.31,4.91-.09,7.18,2.51,1.77,3.43,3.13,1.1,5.97-1.5,1.84-1.08,3.37,2.17,4.3,1.52,.44,2,5.07,2.64,7.87,1.89,8.38,3.32,16.87,5.5,25.17,2.25,8.57,5.12,16.98,7.85,25.41,.41,1.28,1.34,2.59,2.39,3.44,3.38,2.73,4.16,5.74,3.08,8.42,3.7,5.36,7.41,10.71,10.95,15.84,9.02-1.75,13.77-8.78,19.99-13.77,4.07-3.27,9.91-5.45,12.15-9.63,3.67-6.86,12.16-5.88,16.14-12.7,2.72-4.66,10.3-6.49,15.71-9.58,.26,.22,.53,.44,.79,.66-.29-.2-.58-.39-.88-.59,7.16-6.29,13.75-13.5,25.85-15.23-2.49,3.23-4.06,5.27-5.65,7.33,2.7,0,5.38,0,8.07,0-1.24,1.6-2.49,3.19-4.44,5.7,.76,.74,2.17,1.98,3.39,3.37,.84,.96,1.42,2.15,2.12,3.24-.09,.4-.17,.8-.26,1.2l.78-.67c1.6-.58,3.2-1.15,4.8-1.73,3.34-1.02,6.71-1.97,9.98-3.17,.36-.13,.6-2.12,.17-2.61-3.76-4.25-1.21-10.4-3.41-14.07-3.18-5.31,1.79-8.69,.71-12.92-2.24-8.78-.57-18.32-5.21-26.66-.35-.63,.33-1.9,.67-2.83,1.29-3.52,3.56-6.74-.61-10.39-1.27-1.11-.25-5.04,.04-7.65,.33-3.04,1.37-6.02,1.46-9.05,.35-10.97,1.57-22.08,.33-32.89-1.6-13.93,1.78-27.47,1.21-41.22-.72-17.53-1.77-35.07-1.87-52.61-.05-8.44,1.75-16.89,2.69-25.33,.08-.71,.19-1.52-.05-2.16-1.77-4.78-.26-9.46,.08-14.24,.6-8.48,.81-17.03,.53-25.53-.27-8.06-1.89-16.09-1.94-24.14-.02-3.91,2.18-7.84,3.71-12.83,2.64,2.33,3.87,3.41,5.02,4.41,2.51-1.49,4.83-2.9,7.19-4.25,.85-.49,2.1-1.43,2.63-1.15,7.04,3.75,12.12-2.3,18.14-3.44,4.6-.87,11.71,6.01,13.03,12.26,2.78,13.08,6.07,26.07,8.3,39.23,1.6,9.46,.85,19.37,2.87,28.71,4.43,20.46,4.44,41.14,5.16,61.84,.48,13.76,1.35,27.51,2.33,41.25,.96,13.49,2.03,26.98,3.52,40.42,1.2,10.84,3.36,21.56,4.63,32.39,1.01,8.64,1.02,17.41,2.09,26.04,.52,4.24,2.87,8.24,3.61,12.49,1.29,7.4,1.59,14.98,3.06,22.34,.87,4.38,3.46,8.39,4.8,12.71,2.65,8.57,4.6,17.37,7.57,25.83,1.92,5.49,1.03,12.14,7,16.24,2,1.37,2.39,5.07,3.68,8.1,1.96,.34,4.55,.78,7.39,1.27-1.27,4.29,1.51,6.47,4.65,5.12,3.54-1.52,6.58-.77,9.92-.76,5.84,.01,10.03-3.76,14.74-6.62,7.23-4.39,12.52-12.16,21.96-12.84,.85-.06,1.49-1.69,2.43-2,1.53-.51,3.23-.54,5.5-.87,.13-.5,.63-2.5,1.53-6.05,1.38,2.18,2.09,3.3,3.54,5.6,1.96-6.94,6.31-10.24,12.22-11.94-3.95-7.44-7.46-15.11-11.89-22.2-10.88-17.39-17.87-36.49-24.28-55.72-5.28-15.81-9.18-32.12-12.96-48.38-1.71-7.37-2.01-15.14-2.2-22.75-.05-2.08,2.61-4.23,4.24-6.66-3.75-1.36-4.09-2.98-3.52-7.47,.62-4.96,2.45-11.91-3.09-16.65-.68-.58,.09-3.04,.44-4.58,.58-2.56,1.37-5.07,2.3-8.43-2.01,.44-2.86,.72-3.74,.8-.79,.08-1.6-.05-2.4-.09,.21-.74,.31-1.54,.65-2.22,.99-1.98,2.08-3.9,3.14-5.85-.68-.33-1.36-.65-2.04-.98-.86,1.29-1.71,2.59-1.98,3,0-11.43-.09-23.73,.05-36.02,.04-4.16,.5-8.33,1.01-12.46,1.87-15.14,3.38-30.34,6.02-45.35,1.07-6.09,4.26-11.97,7.24-17.54,5.53-10.38,10.92-20.96,17.69-30.51,5.48-7.74,13.69-13.54,19.17-21.28,3.16-4.46,8.89-5.01,10.96-8.74,2.81-5.04,7.11-7.05,11.49-9.29,12.74-6.53,25.29-13.74,40.55-12.17,9.68,1,19.41,1.57,29.11,2.41,2.75,.24,5.48,.77,8.22,1.17l-.1,.08c5.78,2.46,11.44,5.26,17.38,7.22,2.74,.9,6.02,.15,9.06,.15-.29,.54-.58,1.08-.87,1.63,3.94,2.26,7.89,4.53,11.83,6.79,3.21,3.8,6.94,6.72,12.82,8.21,7.91,2.01,15.39,5.69,23.16,8.32,3.34,1.13,7.08,4.76,10.41-.89,.29,2.79,.53,5.03,.84,8.05,3.79-3.23,6.5-3.63,9.42,.63,1.25,1.83,5.01,1.93,7.62,2.85,.84,.3,2.21,.55,2.38,1.11,2.62,8.48,11.26,11.92,15.65,19.16,6.38,10.51,14.15,20.28,17.42,32.31,5.16,19.01,5.23,38.44,2.69,57.82-1.01,7.73-2.91,15.43-5.33,22.84-1.3,3.99-5.73,7.07-6.66,11.05-1.37,5.84-4.35,10.26-8,14.6-.13,.16,.7,1.13,1.09,1.72l-.07-.08c2.16,1.96,4.71,3.64,6.34,5.96,1.4,1.98,2.87,5.08,2.23,6.99-.59,1.76-3.86,3.49-6.09,3.68-5.69,.48-11.55,1.37-16.94-2-5.03-3.15-7.19,2.79-10.94,3.82-.48-.41-.96-.83-1.45-1.24,.22,.62,.45,1.23,.67,1.85-.76,3.54-1.53,7.08-2.29,10.61l.08-.11c-.21,1.15-.95,2.54-.56,3.41,5.6,12.51,.1,21.18-13.56,21.2-.97,0-1.93,0-3.5,0,.78,1.33,1.28,2.18,2.89,4.94-8.35-1.97-15.57-2.82-22.06-5.45-6.35-2.57-19.38-1.82-22.44,2.88-3.07-5.39-7.83-2.93-12.18-2.75-4.58,.19-9.17,.04-15.65,.04-4.27,2.24-10.47,3.38-17.82,1.43-4.04-1.07-9.48-2.92-13.61,1.77-.83,.94-3.45,.3-5.24,.4-.65,.03-1.34-.05-1.93,.14-2.58,.87-5.09,2.48-7.69,2.61-7.23,.38-9.45,2.77-7.39,9.58,3.16,10.45,6.06,21.03,10.06,31.16,4.64,11.76,9.62,23.5,15.83,34.47,4.53,7.99,7.94,16.78,15.89,22.97,5.83,4.54,9.16,12.16,14.55,17.42,6,5.85,13.3,10.33,19.63,15.86,7.7,6.73,17.1,7.3,26.44,8.04,3.97,.31,8.22,.19,12.01-.9,8.93-2.55,14.27-10.27,20.91-15.99,7.38-6.36,13.98-13.6,21.21-20.16,1.2-1.09,3.84-.89,5.79-.81,2.23,.09,4.51,.51,6.65,1.16,1.28,.39,3.01,1.27,3.37,2.33,1.03,3.02,1.46,6.25,2.41,10.68,2.97-3.31,5.32-8.19,7.94-8.35,5.14-.3,6.76-5.26,10.07-5.96,5.01-1.06,2.59-5.99,5.81-7.32,5.24,2.45,7.85,1.96,10.35-2.09,2.6,2.25,3.61,9.86,9.08,1.98,1.47-2.11,6.43-2.19,9.84-2.46,4.39-.35,8.03,4.36,6.38,8.6-1.72,4.43-4.3,8.59-6.89,12.61-3.53,5.48-7.42,10.73-11.16,16.08-.23,.32-.64,.69-.6,1,1.46,11.46-6.62,19.77-9.62,29.72-2.02,6.71-7.73,11.14-9.7,16.76-2.16,6.14-9.95,7.7-9.54,14.69-5.16,1.08-5.39,6.49-8.39,9.44-.72,.7-2.18,.65-3.3,.94-.1-.29-.19-.58-.29-.87-.17,.16-.34,.33-.52,.49,.3,.09,.6,.19,.9,.28-1.11,.84-2.22,1.67-4.07,3.06,1.15,3.22-3.78,3.23-4.96,5.06-3.14,4.85-7.85,5.52-11.94,7.84-14.35,8.13-29.66,11.27-46.25,11.2-11.61-.05-23.12,.05-34.28-2.99-14.61-3.98-28.61-9.23-41.44-17.95-15.89-10.8-30.09-23.29-43.04-37.28-6.28-6.79-11.83-14.26-17.71-21.42-.32-.24-.64-.48-.97-.72-1.27-2.68-2.55-5.36-4.77-10.02-2.5,5.5-4.31,9.46-6.11,13.42,.29,1.97-3.03,4.85,1.71,5.74,2.23,.42,4.29,1.76,6.43,2.68,.46,2.99-1.72,6.27,1.61,9.1,.73,.62-1.08,4.13-1.57,6.34-.55,2.47-3.02,5.83,2.4,5.91l-.07-.07c2.54,14.06-7.42,23.21-14.13,33.08-5.97,8.77-13.82,16.68-22.14,23.34-10.24,8.19-21.47,15.37-33.02,21.59-4.92,2.65-11.74,1.99-17.72,2.35-1.42,.09-2.85-2.24-4.46-2.6-2.87-.63-6.24-2.29-8.3,1.66-1.43-1.03-3.5-1.75-4.17-3.15-1.53-3.18-3.61-4.52-6.98-3.63-2.49,.66-4.68,2.56-5.14-2.56-.19-2.14-4.94-3.82-7.55-5.81-3.36-2.57-6.67-5.19-9.93-7.88-1.21-1-3.09-2.19-3.16-3.38-.39-6.93-6.15-7.95-10.68-10.59-5.69-3.32-12.1-6.23-16.35-10.97-3.85-4.29-8.56-8.58-9.56-15.39-.58-3.96-3.99-7.5-6.08-11.25-1.43-2.56-2.86-5.12-4.18-7.73-1.24-2.46-2.34-4.98-3.74-7.99-1.71-6.25-3.63-13.3-6.05-22.14-8.13,10.22-15.31,19.84-23.15,28.9-6.62,7.66-13.2,15.8-21.35,21.54-5.24,3.69-10.6,8.91-18.15,9.15-3.01,.1-5.98,1.64-8.94,2.61-.69,.23-1.43,.66-1.86,1.22-.29,.38,.17,1.47-.12,1.68-2.91,2.12-7.35,.4-9.69,4.69-2.9,5.33-6.89,1.48-10.69-.09-.76,3.22,2.89,8.63-4.07,8.32l.08,.05c-.56-2.32-1.13-4.65-1.69-6.97l-3.03,1.03c-2.76,.27-4.74,1.17-3.69,4.54-2.57-.29-5.15-.58-7.91-.89-.99,3.47-3.66,5.82-8.14,6.15-1.27,.1-3.34,.6-3.61,1.4-2.55,7.61-5.81,3.55-9.22,.57-6.75,5.87-13.57,6.12-20.47,0-.68-.6-2.48,.24-3.53-.18-.92-.37-1.47-1.6-2.26-2.37-.58-.57-1.33-1.49-1.92-1.43-8.64,.83-13.06-5.89-18.08-10.75-3.26-3.15-4.57-8.25-7.12-12.25-.94-1.48-2.92-2.3-4.46-3.46,.39-.68,.95-1.66,1.4-2.44-2.66-1.91-5.12-3.67-7.63-5.47,1.36-.63,2.63-1.1,3.76-1.79,.4-.24,.67-1.04,.64-1.56-.04-.51-.44-1.33-.84-1.44-6.74-1.84-9.85-3.68-11.77-7.87-1.17-2.55-3.77-5.2,.69-7.87,2.27-1.36-.72-7.73-4.13-9.37-2.24-1.08-4.42-2.26-6.07-3.11-.26-2.4-.45-4.15-.64-5.9-.52,.02-1.04,.04-1.56,.06,.84-.91,1.67-1.82,1.33-1.45-7.21-9.89-9.17-20.32-10.02-31.35-.38-4.9-1.81-9.83-3.49-14.49-1.44-3.99,1.26-8.82-2.63-12.27-.06-.05-2.26-4.33,1.98-3.55-.22-1.48,.09-3.41-.74-4.36-4.12-4.71-.04-8.15,.81-12.73-.84-.16-2.49-.47-4.41-.84,1.03-8.11-2.1-16.07-1.31-24.2,.29-3,2.13-5.85,3.33-8.93-5.65-2.84-3.96-8.84-4-14.31-.02-2.03-.41-4.05-.47-6.07-.12-3.76-.29-7.54-.15-11.3,.14-4.01,2.07-8.67,.61-11.86-2.25-4.94-3.21-8.49-.57-13.81,1.37-2.78-1.86-7.56-2.19-11.5-1.01-12.09-1.97-24.2-2.3-36.32-.36-12.91-.16-25.85,.22-38.76,.07-2.47,2.13-4.89,3.1-6.95-.74-.39-2.49-.73-2.74-1.53-1.74-5.7,1.3-16.52,4.78-18-1.63-5.28-6.31-10.2,.87-15.75,2-1.54,.3-7.86,.3-11.23,1.03-2.66,3.08-5.27,2.47-6.83-3.66-9.29-.4-18.22,1.35-26.96,1.98-9.91,5.71-19.47,8.65-29.19,.84-2.77,1.29-5.7,2.44-8.33,.83-1.91,2.51-3.46,4.6-6.21,1.45,3.34,2.27,5.24,3.09,7.14-1.11,2.15-2.21,4.31-3.32,6.46-.35,1.7-.7,3.4-1.05,5.1-1.01,2.16-1.99,4.32-3.03,6.47-.49,1.01-1.75,2.2-1.51,2.92,2.42,7.3-1.59,13.67-2.69,20.45-1.25,3.34-2.51,6.69-3.15,8.4v12.04c-1.19,2.94-2.87,5.07-2.35,6.17,2.31,4.94-2.07,10.58,1.85,15.2,.11,.13-.38,.67-.44,1.04-.67,4.23-1.53,8.44-1.86,12.7-.16,2.04,.71,4.16,1.11,6.24,.29,1.31,1.23,3.44,.76,3.82-3.92,3.17,2.83,8.73-2.65,11.37-.08,.04,.28,.74,.21,1.09-1.24,6.16,.9,12.18,.32,18.51-.82,8.8,.99,17.85,1.67,26.79l1.2,13.91c-.53,4.3-1.48,8.6-1.48,12.91,0,4.07,1.01,8.14,1.58,12.21,.48,1.85,1.06,3.68,1.4,5.55,.15,.79-.35,1.68-.28,2.5,.13,1.45,.73,2.89,.67,4.31-.08,1.88-.9,3.75-.89,5.62,.02,3.88,.37,7.77,.62,11.65,.06,.87,.07,1.84,.46,2.57,2.58,4.76,3.63,9.26-1.79,13.01,2.15,7.16,6.13,14.22,2.77,21.92,1.19,1.92,2.49,4.01,3.79,6.11-3.35,5.31,.48,10.7-.13,16.08-.24,2.1,.7,4.34,1.1,6.52-.34,1.89-.68,3.78-1.02,5.67l1.25,2.34c.35,.05,.71,.08,1.06,.08,.05,.38,.11,.75,.19,1.12-.62,2.26-1.24,4.51-1.97,7.19q2.13,1.91,10.23-3.68c-.37-3.74-.71-7.08-1.04-10.41-.7-2.16-2.33-4.51-1.94-6.44,1.7-8.46-.49-16.48-1.89-24.62,.26-3.07,.51-6.14,.84-10.14,.03,.02-1.01-.75-2.05-1.52,.8-4.78,1.74-9.54,2.25-14.34,.07-.64-2.04-1.5-3.13-2.26-.59-4.33-1.17-8.65-2-14.72,5.06-3.71,5.31-10.23,.73-16.86-2.47-3.57-2.06-6.47-.4-10.03,.54-1.16,3.74-3.96-.81-4.72,.29-2.69,.97-5.4,.79-8.06-.5-7.54-1.36-15.05-2.07-22.57,.09-.14,.18-.28,.27-.43-.08,.15-.16,.3-.24,.46-.52-1.24-1.38-2.47-1.45-3.73-.07-1.23,1.04-2.52,1-3.76-.3-8.27-.63-16.54-1.27-24.79-.24-3.1-1.35-6.13-2.19-9.78,.6-1.44,2.12-3.68,2.41-6.08,.75-6.19,1.05-12.45,1.33-18.69,.06-1.39-.73-2.81-1.12-4.22,.89-4.59,2.07-9.15,2.61-13.78,.96-8.32,1.15-16.75,2.38-25.02,.9-6.01-3.85-12.26,1-17.96,.23-1.72,.54-3.44,.68-5.17,.56-7.03,1.08-14.06,1.61-21.09,.85-2.3,1.7-4.59,2.55-6.89l-.03,.06Zm342.27,455.63c1.65,1.36,3.29,2.73,5.17,4.29,.96-2.43,1.88-4.77,2.8-7.1l-1.01-1.34c-2.32,1.39-4.63,2.78-6.95,4.16-.35-.02-.7-.04-1.06-.06-.96-.09-2.04-.51-2.86-.21-3.09,1.14-6.09,2.52-9.12,3.81-.48-4.53-3.01-5.38-7.04-4.23-2.36,.67-5.53,1.9-7.2,.93-4.71-2.75-7.95-.66-13.18,2.44,3.93,2.28,6.79,3.94,9.65,5.6,.89,1.91,1.78,3.83,2.67,5.74,1.5-1.61,2.89-3.37,4.56-4.78,.76-.64,2.09-.62,3.16-.9l11.28,2.93-.28-1.38c2.3-.58,4.59-1.16,6.89-1.74,1.01-.83,2.68-1.53,2.87-2.51,.35-1.79-.18-3.76-.35-5.65Zm-338.81-99.47l2.19,.16,2.51,.36c-.87,1.72-1.73,3.44-2.71,5.36,.94,.76,2.09,1.68,3.54,2.85-2.57,1.87-6.78,3.35-1.77,6.6,.42,2.01,.84,4.03,1.25,6.04,.68-.18,1.36-.35,2.05-.53-.1-.89-.19-1.78-.29-2.67,.29-.29,.58-.59,.87-.88,1.75,5.03,3.52,10.05,5.15,15.11,.04,.12-1.5,.75-2.66,1.32,9.66,3.45,9.2,14.17,14.45,20.47-.34,.22-1.28,.81-2.22,1.4,.31,.37,.62,.73,.93,1.1h5.17c2.18,7.01,7.24,12.08,11.96,17.29,2.6,2.87,5.7,5.36,8.87,7.6,.74,.52,2.68-.66,4.06-1.06,.9,1.12,1.81,2.24,2.97,3.68,.94-.77,2.02-1.65,3.4-2.78-3.55-3.36-6.72-6.35-9.88-9.35-2.33-6.28-3.45,1.92-6.01,.03,.53-1.51,1.12-3.19,1.44-4.09-2.51-4.33-4.78-8.26-7.06-12.19l1.28-.88c-2.26-.58-4.51-1.16-6.77-1.74,1.08-8.17-5.98-9.82-10.67-12.92,.98-1.19,2.58-2.37,2.39-3.04-1.16-4.11-7.26-6.17-4.9-11.83-7.3-.54-5.81-6.88-7.38-11.19,1.45-1.11,2.91-2.22,4.36-3.32l-1.87-.16c-.78-2.75-1.56-5.5-2.47-8.69-1.53-.48-4.05-1.26-6.57-2.04,.72-1.29,1.43-2.58,2.14-3.87l.96-.26-1,.14c-.32,0-.59-.11-.81-.34,3.04-7.14,2.84-7.74-1.82-8.32,.38-2.11,1.41-4.39,.99-6.35-.77-3.61-2.4-7.05-3.67-10.55l.28-.48-.26,.5c-.98-1.38-3.07-3.63-2.77-4.02,4.21-5.44-1.14-6.31-3.51-8.82-6.76,8.55-5.52,24.16,2.42,34.43,.47,2.65,.95,5.3,1.42,7.96Zm598.17-241.42c-1.25,3.24-2.62,6.44-3.69,9.74-.7,2.16-.94,4.46-1.64,7.92,3.09-3.04,4.81-4.73,7-6.89,0-.05-.26-2.21,.04-2.29,4.12-1.09,2.18-3.85,1.87-6.14,.89-2.32,1.77-4.63,2.66-6.95,.71-2.83,1.69-5.63,2.07-8.5,.63-4.75,.88-9.54,1.3-14.43-2.14,.14-3.48,.22-4.83,.3,1.3-1.18,2.6-2.36,4.17-3.79-1.23-.64-2.44-1.28-3.3-1.73,.59-2.16,1.38-3.77,1.43-5.41,.16-5.2,.3-10.43-.06-15.62-.22-3.26-.62-8.8-2.17-9.27-5.39-1.64-4.36-6.19-5.98-9.5-1.3-2.65-2.63-5.27-3.95-7.91l-1.31,.71c2.31,8.15,4.63,16.31,6.96,24.46,.03,.12,.32,.16,.81,.39,.69-.85,1.44-1.77,2.18-2.69,.51,.35,1.01,.7,1.52,1.06-1.29,1.84-2.58,3.69-3.87,5.53,1.22,6.05,1.05,12.38,1.33,18.7,.07,1.72,1.46,3.39,2.24,5.08-2.36,2.65-4.73,5.31-6.74,7.56,1.45,3,2.53,5.4,3.75,7.72,2.24,4.27-2.02,4.43-3.76,6.24-.4,.42-.12,1.5-.16,2.28,.71,1.15,1.41,2.29,2.12,3.44Zm-192.95-43.96c0,.5,0,1,0,1.49-.06,.34-.15,.67-.25,.99-5.12,3-6.49,8.16-3.15,11.52-3.83,6.9-5.98,13.94-2.54,21.65-.5,1.66-1.07,3.3-1.49,4.98-.37,1.48-.58,3-.86,4.51,1.52,.18,3.03,.36,4.56,.54-5.68,7.21-4.13,15.14-2.33,23.1l-.13,2.78c1.41,2.12-7.76,2.56-.89,5.56l2.28,26.2c5.93-2.23,2.87,6.11,6.51,5.95,.66-3.17,1.31-6.29,1.96-9.41,.08-2.5-.96-5.4-1.31-8.38-.69-5.79-.98-11.62-1.49-17.43-.23-2.59-1.46-5.48-.68-7.69,1.3-3.7,.14-6.87-.43-10.26,.2-5.21,.37-10.43,.6-15.64,.16-3.7-1.45-5.41-5.22-4.79,1.9-.74,3.81-1.48,5.89-2.3-.27-2.2-1.53-5.26-.62-6.19,5.54-5.67,4.27-12.97,5.49-19.67,1.76-4.83,3.71-9.6,5.17-14.52,.58-1.95-.84-4.94,3.31-3.11,.56,.25,3.19-2.36,3.04-2.65-1.24-2.26-2.92-4.27-3.73-5.36-2.58,2.25-5.94,4.38-8.18,7.36-2.39,3.17-3.71,7.14-5.5,10.76Zm23.12-.38l1.14-.03c-.24,1.21-.44,2.43-.73,3.63-1.95,8.07-4.79,16.04-5.7,24.22-1.66,14.97-2.35,30.05-3.09,45.11-.29,5.89,.46,11.83,.54,17.75,.03,2.69-.19,5.45-.76,8.07-.39,1.79-1.57,3.42-2.4,5.11,3.07,.24,6.37,1.33,9.16,.56,8.48-2.34,16.71-5.6,25.15-8.1,5.92-1.75,12.05-2.78,18.06-4.26,9.65-2.38,19.16-5.87,28.95-6.99,9.06-1.04,12.83-6.07,15.5-13.48,1.55-4.3,3.16-8.61,5.13-12.72,3.97-8.3,10.2-16.09,11.86-24.79,2.44-12.83,1.79-26.27,2.23-39.46,.06-1.73-.84-3.83-1.96-5.22-8.7-10.71-21-15.9-33.32-20.77-11.1-4.39-23.44-4.19-34.6-8.66-1.29-.52-3.24-.01-4.65,.57-2.71,1.12-5.25,2.64-7.87,3.97-1.26,.64-3.11,.87-3.72,1.87-2.2,3.62-6.3,6.08-6.45,11.08-.04,1.19-2.8,2.14-3.96,3.5-1.61,1.89-3.53,3.89-4.11,6.15-.51,2.02,.62,4.45,1.03,6.7l-1.36,.11c-.41-.74-.82-1.49-1.22-2.23-.72,.46-1.86,.76-2.09,1.39-.71,1.98-1.07,4.08-1.56,6.14l-.99,1.9c.2,.12,.4,.24,.6,.36,.41-.5,.81-.99,1.22-1.49Zm47.49,282.16c2.64-6.48-.66-10.47-3.94-14.46-6.05-7.35-12.58-14.37-18.01-22.15-4.67-6.68-8.04-14.26-12.09-21.39-.7-1.23-1.91-2.18-2.95-3.32-3.96,5.29-3.25,16.01,.96,19.21,.09,.07,.48-.25,.99-.52l-1.42-3.27c8.53,18.05,21.57,32.32,36.45,45.9Zm-108.71,89.3c-6.26-4.61-9.04-.94-11.34,1.58-1.62,1.78-1.47,5.16-2.1,7.82,4.95-3.46,9.2-6.43,13.44-9.4Zm58.76-172.09c-.77,.46-1.53,.92-2.3,1.38,1.61,3.89,3.21,7.77,5.55,13.44,1.63-2.97,3.44-4.95,3.02-5.73-1.72-3.22-4.12-6.09-6.27-9.08Zm91.19,167.06c.94,1.6,1.77,3.02,2.8,4.78,2.82-.51,5.62-1.02,8.43-1.53-.12-.58-.24-1.16-.36-1.73-3.58-.5-7.16-1-10.86-1.52Zm-187.56,19.06l.75-.56c-.26-.22-.51-.6-.79-.63-.27-.02-.58,.31-.86,.49,.29,.22,.58,.45,.9,.7Zm5.1-306.57c-.13,.09-.26,.18-.39,.27,.11,.12,.2,.32,.32,.33,.12,.01,.26-.16,.39-.25-.11-.12-.21-.23-.32-.35Zm-75.31-25.67c-.11-.12-.2-.31-.32-.33-.12-.01-.26,.16-.39,.25,.11,.12,.2,.31,.32,.33,.12,.01,.26-.16,.39-.25Z"/><path class="cls-7" d="M1031.64,705.22c.37-1.57,.74-3.13,1.1-4.7,.43-.82,.86-1.65,1.29-2.47,.53-1.55,1.07-3.11,1.6-4.66,2.14-2.75,4.32-5.48,6.31-8.34,.09-.13-2.18-2.18-2.26-2.11-2.38,2.12-4.61,4.39-6.87,6.64-2.54,3.57-5.08,7.15-7.59,10.67-6.55,5.75-14.6,10.12-18.38,19.07l-.09,.12c-5.38-.81-13.66,5.62-15.35,10.78-9.12,2.33-17.44,4.45-27.13,6.92,2.22,.59,3.22,.85,4.22,1.11l-.04,1.54c-3.11-.18-6.22-.36-9.34-.55-.51,3.96-.47,3.88,4.14,6.37,3.23,1.75,6.32,3.76,9.8,5.85-.13,.56-.32,1.24-.45,1.92-.48,2.49-.91,7.14-1.43,7.15-3.91,.06-7.84-.72-11.73-1.38-1.09-.18-2.1-.84-3.69-1.51,1.94-2.74,3.76-5.32,6.06-8.55-3-1.56-5.88-3.06-8.45-4.4-.51,2.96-1,5.77-1.45,8.37-1.65-1.92-3.29-3.81-5.68-6.58-1.13,4.06-1.79,6.44-2.67,9.63-3.97-2.13-7.63-5.51-11.6-5.92-7.23-.75-14.17-2.55-21.11-4.2-7.63-1.81-15.75-3.63-22.18-7.74-4.72-3.02-9.45-5.23-14.47-7.41-2.39-1.03-3.69-4.54-6.07-5.63-3.86-1.75-5.7-6.92-10.85-6.28,.17-.53,.35-1.07,.52-1.6,.22-.29,.45-.57,.68-.85l-1.39,.15c-.56-.11-1.4-.02-1.66-.36-9.56-12.6-18.99-25.29-28.65-37.81-1.42-1.84-3.91-2.86-5.06-4.93-1.3-2.03-2.68-4.01-3.89-6.1-1.48-2.56-2.81-5.2-4.32-8.01-1.92-3.01-3.8-5.92-5.66-8.85-2.97-4.68-5.92-9.38-9.13-14.47,2.82-2.81,2.08-5.05-.75-8.42-4.23-5.03-7.07-11.22-10.62-17.11,1.24-1.49,2.31-2.78,4.08-4.89-2.36,.3-3.89,.5-6.18,.79,0-3.62,.75-7.43-.15-10.79-2.38-8.95-4.67-18.11-8.68-26.36-1.63-3.35,.23-6.92-2.8-10.05-2.54-2.63-3.41-7.11-4.35-10.94-.37-1.51,1.38-3.44,1.55-5.23,.13-1.37-.71-2.83-1.12-4.25-.57,.63-1.15,1.27-3.18,3.51,3.5-20.53-.49-38.73-4.73-57.3,.4-.28,1.73-1.24,3.74-2.67q-6.53-.03-.97-10.05c-1.59-.2-3.09-.39-4.54-.58-.21-.4-.53-.71-.53-1.02,.03-5.78-.23-11.59,.21-17.34,1.06-13.94,1.62-28,3.93-41.75,2.16-12.88,5.72-25.62,9.82-38.03,2.32-7.01,6.64-13.46,10.75-19.72,1.75-2.67,5.24-4.2,8.14-6.4-.53-.44-1.82-1.52-3.53-2.94,1.31-1.39,2.27-2.96,3.67-3.77,6.63-3.86,9.64-11.12,14.97-15.83,3.63-3.21,5.48-9.87,12.23-9.11l-.11-.06c-.15,1.24,.17,3.03-.53,3.6-1.82,1.49-4.08,2.45-4.85,2.88,.84,3.04,1.39,5.04,1.79,6.48-2.66-.76-5.6-2.32-6.25-1.65-2.69,2.76-4.68,6.19-7.84,10.67,2.9-.43,5-.74,8.04-1.2,.02,.02,1.02,1.18,2.51,2.93,.47-2.77,.86-5.03,1.09-6.42,3.02-1.63,5.62-3.03,8.89-4.8-2.21-1.24-3.59-2.01-6.38-3.56,3.8-.79,6.26-1.3,8.97-1.86,.03-.15,.26-1.22,.49-2.3,1.2-.79,2.39-1.58,3.59-2.38,1.01-.02,2.23,.32,2.99-.12,3.53-2.02,6.94-4.27,11.81-7.32-2.95-.15-4.75-.42-6.5-.28-2.03,.17-4.03,.7-6.04,1.08,.23-2.01,.46-4.03,.69-6.04,.4,.44,.8,.87,1.19,1.31,1.72-1.34,3.44-2.69,5.18-4.02,2.47-1.89,4.69-4.72,7.47-5.45,7.22-1.91,13.08-10.1,21.91-5.07,.39,.22,1.27-.13,1.78-.44,3.83-2.31,7.62-4.67,11.43-7.01l.29,.33c2.18,.25,4.65,1.28,6.48,.6,7.39-2.76,14.52-6.2,21.88-9.07,2.03-.79,4.49-.5,6.76-.68,1.75-.14,3.51-.24,5.27-.36,.35-1.54,.69-3.08,1.04-4.62,.74,.06,1.48,.12,2.22,.17,3.06,6.79,8.57,3.18,13.25,3.13,6.86,2.33,14.25,3.73,20.43,7.24,7.65,4.35,15.73,9.34,21.03,16.09,7.53,9.58,13.13,20.8,18.73,31.74,3.55,6.94,5.6,14.65,8.33,22.01l.07-.09c.39,1.46,.87,2.9,1.17,4.37,2.53,12.44,6.97,24.41,3.95,37.78-1.78,7.9-.19,16.57-.1,24.89,.02,2.31,.15,4.62,.05,6.93-.03,.63-.64,1.71-1.1,1.77-3.97,.54-3.85,3.18-3.62,6.2,.38,5.02,.49,10.05,.72,15.08-.25,.6-.49,1.2-.74,1.8l1.54-1.1,2.86,1.53c-2.01,2.11-5.07,3.89-5.06,5.66,0,2.49,2.27,4.98,4.18,6.76,.21,2.75-.23,5.77,.8,8.17,1.31,3.02,1.66,3.69-2.13,4.76-1.97,.56-3.31,4.92-4.06,7.78-.56,2.14,.16,4.66,.53,6.98,.23,1.46,1,2.83,1.23,4.28,.12,.79-.2,1.81-.66,2.5-.39,.59-1.84,.9-1.82,1.29,.17,3.83,.84,7.67,.73,11.48-.06,1.91-1.01,4.18-2.31,5.6-2.16,2.34-2.46,3.75-.06,6.28,3.34,3.51,.97,7.89-1.67,11.77-2.35,3.46-4.43,5.83-8.24,7.55-6.29,2.84-12.22,6.47-17.97,9.58-5.4-5.76-6.22-10.89-2.81-16.01-4.04-1.65-7.88-3.43-11.89-4.7-.81-.25-2.23,2.13-3.37,2.12-4.7-.01-9.4-.63-14.1-.7-2.18-.03-4.36,.79-6.56,1.04-6.87,.77-13.77,1.38-20.63,2.22-2.48,.3-4.88,1.18-7.35,1.63-2.86,.52-6.1,2-7.52-2.32-3.39,1.92-6.38,5.17-10.84,1.23-.88-.78-4.57,1.62-7.01,1.17-2.3,.18-4.63,.24-6.91,.56-4.92,.68-9.81,1.55-14.73,2.24-3.06,.43-6.14,.67-10.51,1.13,1.73,4.92,3.18,9,4.61,13.09,2.69,7.69,4.94,15.57,8.16,23.03,3.83,8.9,8.52,17.43,12.76,26.16,2.64,5.44,4.91,11.05,7.76,16.37,1.25,2.34,3.57,4.1,5.31,6.2,4.83,5.84,9.63,11.7,14.38,17.6,.96,1.2,1.37,2.94,2.49,3.89,3.08,2.64,6.45,4.94,9.62,7.48,3.18,2.55,5.87,6.33,9.47,7.63,7.81,2.8,14.53,9.35,23.69,7.67,2.01-.37,3.73-2.14,5.74-2.71,3.07-.87,6.28-1.21,9.42-1.86,2.71-.56,5.82-.59,8.01-2.01,4.45-2.87,8.18-6.85,12.61-9.77,4.91-3.24,8.26-7.01,7.72-13.24,10.95-1.22,16.34-9.17,21.34-17.59,4.18-2.63,8.17-5.68,12.64-7.66,1.37-.61,4.04,1.7,6.61,2.9-3.04,7.87-5.85,15.14-8.58,22.21,2.14,1.7,4.06,3.23,5.98,4.76-.11,1.76-.1,3.54-.34,5.28-.64,4.6-1.38,9.19-2.08,13.79-.09,.17-.18,.33-.27,.5,.09-.16,.18-.33,.28-.49,2.8-3.62,5.6-7.23,8.93-11.55,2.44,1.79,5.07,3.71,7.69,5.64,0,.76-.01,1.52-.02,2.28-1.36,3.61-3.14,7.13-3.96,10.87-.71,3.2-.33,6.65-.43,9.99,2.2-1.45,4.39-2.92,6.6-4.34,.3-.19,.71-.21,2.24-.63,1.52,2.08,3.32,4.54,5.11,6.99-4.93,14.99-10.56,29.59-21.8,41.27-2.21,2.29-3.83,5.13-5.86,7.61-3.78,4.62-6.49,10.67-14.4,9.56-1.38-.19-3.08,2.98-4.86,4.29-.85,.62-2.23,.51-3.4,.74,.31,5.31-.2,5.55-6.82,2.72-.7,3.76-8.15,9.08-11.47,7.87-1.11-.41-2.61-2.4-2.39-3.3,.54-2.23,1.45-5.09,3.16-6.15,2.81-1.73,6.38-2.24,9.63-3.26,.02-1.51,.04-3.01,.06-4.52,8.05-2.5,13.81-7.97,18.84-14.41,.76-.98,1.32-2.32,2.31-2.88,2.76-1.57,6.58-1.31,5.45-6.93-.44-2.19,4.22-5.38,6.52-8.16,.57-.69,.94-1.53,1.4-2.3,.33,.03,.67,.04,1,.03Zm-167.63-347.47l-1.41-.06c.24,.27,.49,.53,.73,.8l.87,2.04c.46-.23,.92-.46,1.38-.69-.53-.7-1.05-1.4-1.58-2.09Zm57.42,167.73c.97-.03,2.11,.27,2.87-.15,1.86-1.01,3.9-2.08,5.1-3.69,.37-.5-1.71-2.83-2.68-4.32-1.94,1.99-6.9-2.97-7.07,3.07-3.05-3.53-5.98-.47-8.95,.17q-2.26-1.64-5.4,1.6c-2.83-2.05-5.89-3.52-6.76,.74-3.85,.38-7.22,.81-10.6,1.01-2.88,.17-5.78,0-8.66,.14-3.31,.16-6.61,.51-9.91,.73-1.81,.12-3.67-.03-5.45,.26-2.57,.42-5.24,.8-7.51,1.94-.56,.28,.29,3.39,.42,4.49,4.74,2.53,10.09-3.88,13.25,2.7,4.29-4.65,6.43-4.92,9.53-1.99,2.71-.81,4.85-1.75,7.08-2.05,4.49-.6,9.02-.85,13.53-1.24l-.09-.07c.31,.62,.77,1.82,.89,1.78,4.81-1.35,9.58-2.82,14.36-4.27,2.01-.29,4.03-.58,6.04-.87Zm-51.98-36.49c3.66-1.5,6.04-3.01,8.6-3.41,5.44-.86,11.08-.61,16.41-1.84,3.38-.78,6.5-2.91,10.19-2.87,1.49,.01,3.21,.62,4.41,.07,2.59-1.19,8.71-3.19,11.41-3.2,1.83,0,3.67-.16,5.5-.22,7.73-.24,10.99-6.22,14.67-11.56,.88-1.27,1.09-3,1.61-4.52l-.89-.1c1.51-1.72,3.01-3.44,5.73-6.54-1.17,4.62-1.93,7.66-2.87,11.36,1.64,.56,3.45,1.18,4.82,1.65,3.65-11.09,6.26-21.87,4.31-33.46-1.72,2.53-3.16,4.64-4.62,6.79-2.8-3-1.59-14.53,2.47-20.27,.23,2.89,.4,4.99,.57,7.08,1.56-.63,2.52-1.75,2.49-2.84-.08-3.26-.35-6.54-.94-9.75-.56-3.02-1.59-5.95-2.46-8.9-.65-2.24-1.46-4.44-2.01-6.7-.37-1.49-.11-3.18-.65-4.58-2.6-6.63-5.55-13.12-8.05-19.79-2.87-7.68-6.51-14.9-14.08-18.69-3.82-1.91-8.47-2.79-12.79-2.93-4.7-.15-9.45,1.08-14.16,1.77-1.19,.17-2.46,.38-3.51,.92-8.2,4.24-16.47,8.37-24.48,12.94-6.41,3.66-14.13,6.03-15.42,15.31-.29,2.09-3.22,4.41-5.47,5.49-2.81,1.35-9.61,10.2-7.76,11.92,5.84,5.44-1.61,4.12-1.89,6.34-.42,2.98-1.66,5.54-2.66,8.19-.53,1.39-.73,2.94-.88,4.44-.1,.94,.36,1.93,.24,2.86-.62,4.78-1.87,9.53-1.9,14.3-.04,6.33,.84,12.66,1.34,18.99,.26,3.28,1.3,6.69,.71,9.8-1.75,9.31,2.48,17.27,3.96,24.62,5.06,.25,9.24,1.12,13.17,.47,4.04-.68,7.78-3.04,11.78-4.22,1.12-.33,2.72,.93,3.1,1.08Zm-1.69-131.09c15.74-7.58,30.57-16,48.54-13.08,2.02-9.66-6.98-9.69-10.03-12.37-14.93,6.91-29.75,12.18-42.03,22.66,1.62,1.29,2.86,2.26,3.52,2.79Zm-20.06-57.84c-.15,.41-.3,.83-.45,1.24,.83-.07,1.66-.14,2.5-.21l-2.04-1.03Zm-41.03,345.7l.84-.06c-.08-.83-.16-1.65-.24-2.48l-.78,.06c.06,.82,.12,1.65,.17,2.47Zm70.58-355.53c-.13-.25-.26-.51-.4-.76l-.94,.49c.15,.24,.31,.69,.44,.69,.3-.02,.58-.26,.89-.42Z"/><path class="cls-8" d="M533.02,783.4c-1.22-2.84-2.69-5.6-3.55-8.53-.52-1.75-.1-3.79-.1-7.07l-5-8.73c.73-1.41,1.84-3.57,2.95-5.74-1.69-1.1-3.48-2.27-6.98-4.55,11.14-.94,5.57-5.84,4.18-8.91-1.53-3.4-4.95-6.21,.57-9.07,.59-.31,.75-2.21,.52-3.24-2.08-9.1-4.5-18.12-6.33-27.26-.54-2.67,.72-5.65,.66-8.49-.03-1.58-1.07-3.15-1.93-5.45-.12,.08,.75-.48,.57-.36-.44-7.18-.84-13.7-1.27-20.78-.01,0,1.2-.38,2.8-.88-1.06-.96-2.37-1.57-2.46-2.33-.57-4.78-.77-9.6-1.26-14.39-1.11-10.79-2.65-21.55-3.43-32.36-1.31-18.2-2.84-36.43-3.01-54.65-.14-14.92-3.55-29.32-5.12-43.99-1.71-15.99-4.85-31.83-6.98-47.78-1.8-13.51-3.02-27.1-4.56-40.64-1.99-17.41-4.96-34.77-5.82-52.24-.97-19.75-4.85-39.71,1.27-59.35,1.09-3.51,.36-8.89,7.01-7.14,.3,.08,1.11-1.76,1.79-2.89,2.96,1.39,5.86,3.95,9.16,.76,.36-.35,1.53-.53,1.59-.41,3.57,7.16,11.5,1.24,15.98,5.34,1.85,1.7,4.45,3.48,4.94,5.63,3.44,15.27,7.03,30.54,9.3,46,1.31,8.88,4.98,16.96,6.45,25.72,1.58,9.38,4.03,18.61,6.28,27.87,2.2,9.03,4.61,18.01,6.97,27.01,2.46,9.35,5.17,18.64,7.37,28.06,1.05,4.51,.86,9.31,1.82,13.85,1.02,4.79,3.1,9.35,4.07,14.15,1.45,7.2,2.05,14.58,3.57,21.77,.72,3.41,2.75,6.55,4.45,10.42,32.09-12.99,64.05-28.02,98.89-38.09-5.44-25.73-10.98-51.45-16.29-77.22-5.57-27-11.19-54-16.15-81.12-1.19-6.52-1.02-13.8,.6-20.22,2.48-9.88,11.98-14.67,18.89-23.57,2.4,7.26,4.02,12.74,6.01,18.08,8.91,24,18.33,47.82,26.8,71.98,10.05,28.64,19.46,57.5,28.85,86.36,4.46,13.7,8.58,27.53,12.21,41.47,3.1,11.89,4.55,24.26,8.21,35.96,1.97,6.3,1.3,12.87,4.72,19.27,3.3,6.18,2.01,14.67,3.47,21.99,1.28,6.42,3.64,12.61,5.4,18.95,.33,1.18,.13,2.54,.01,3.8-.07,.73-.84,1.53-.68,2.13,1.23,4.68,2.56,9.34,3.97,13.97,.73,2.41,2.16,4.7,2.47,7.14,2.23,17.86,4.3,35.73,6.33,53.61,.93,8.19,1.91,16.4,2.39,24.62,.73,12.48,3.03,24.86,2.54,37.43-.13,3.35,.4,6.83-.37,10.01-.46,1.9-2.86,3.32-4.39,4.96-4.2-.41-8.41-.82-12.75-1.24-.12,1.79-.22,3.3-.32,4.82-7.12,2.16-2.65,8.5-4.6,11.25-3.66,.96-7.06,1.69-10.33,2.8-1.06,.36-1.9,1.62-2.65,2.62-3.71,4.97-.31,12.58-6.13,16.75-2.41,1.73-4.98,3.23-7.6,4.91-1.46-2.11-2.41-3.49-3.23-4.68-.51-.11-.7-.19-.89-.18-5.94,.47-5.73-.25-7.67-7.73-1.85-7.14-1.65-14.66-4.82-21.59-1.68-3.69-1.41-8.22-2.62-12.19-.95-3.12-2.85-5.95-4.28-8.94-.3-.64-.55-1.4-.52-2.08,.12-2.29,.69-4.58,.54-6.84-.5-7.77-1.7-15.51-1.79-23.28-.17-14.59,1.32-29.23-2.23-43.66-.56-2.27-.41-4.7-.66-7.06-1.72-16.21-3.57-32.41-5.15-48.63-.7-7.16-.85-14.37-1.24-21.56-.03-.55,.05-1.11-.05-1.64-1.39-7.35-2.81-14.69-4.36-22.72-34.38,7.59-68.45,15.12-103.3,22.81,2.46,14.41,4.98,27.83,6.97,41.33,1.63,11.08,2.88,22.23,3.85,33.39,2.27,26.2,4.58,52.4,6.17,78.65,.38,6.23-2.12,12.61-3.11,18.95-.29,1.89,.5,4.01-.05,5.77-.41,1.33-2.17,2.23-3.33,3.33l-1.38-.71c0,7.35,.02,14.69,0,22.04-.01,3.43-.59,6.05-4.95,6.93-1.79,.36-3.25,3.47-4.41,5.57-2.78,5.03-5.08,10.33-7.99,15.28-1.74,2.97-8.33,2.04-10.81-1.44-1.34-1.89-2.57-4.02-3.17-6.23-1.24-4.58-1.48-9.49-3.17-13.86-1.55-4-3.86-8.15-6.99-10.96-2.29-2.05-6.68-3.27-9.71-2.69-7.34,1.42-9.79-2.7-11.74-8.2l.08,.1Zm56.82-197.76c1.6-.38,3.2-.75,4.81-1.13,1.94-.39,3.89-.79,5.83-1.18,2.36-.8,4.73-1.6,7.09-2.4,2.66-.69,7.22-.81,7.64-2.18,1.58-5.16,4.28-3.92,7.61-2.65,1.67,.64,3.49,.87,4.45,1.1l3.19-8.1c-7.87,2.43-15.38,4.74-22.89,7.06-4.37,1.56-8.74,3.13-13.11,4.69-1.16,.03-2.32,.07-3.47,.1-1.17,.78-2.33,1.56-3.5,2.33,.79,.78,1.57,1.57,2.36,2.35Zm61.57-16.54c.15,.54,.29,1.07,.44,1.61l.47-.3c-.31-.43-.61-.87-.92-1.3,1.19-1.59,2.38-3.18,4.33-5.79-6.86,1.44-12.29,2.49-17.67,3.73-5.01,1.15-5.56,2.8-2.56,8.14,1.42-2.08,2.74-3.99,4.38-6.39,2.41,4.01,4.75,4.64,7.7,1.41,.76-.83,2.52-.75,3.82-1.09Zm114.28,68.22l.2-.32-.29-.05,.09,.36Z"/><path class="cls-5" d="M432.41,671.17c.61-1.17,1.21-2.33,1.83-3.53,3.38,2.45,6.28,5.02,9.61,6.85,5.66,3.11,5.82,9.1,6.35,13.84,1.24,11.17-2.17,22.06-6.62,32.11-3.34,7.54-8.51,14.48-13.82,20.9-5.69,6.87-12.14,13.21-18.9,19.04-8.8,7.61-17.82,15.1-27.53,21.46-5.86,3.83-13.09,5.82-19.94,7.78-2.57,.74-5.83-.95-9.89-1.75,1.15,1.85,1.68,2.71,2.38,3.84-4.43,1.42-9.77,1.81-12.09,7.33-.66-.6-1.76-1.6-2.98-2.71-1.07,4.26-5.41,5.42-12.82,3.75-.3-.68-.63-1.98-.9-1.96-5.74,.26-11.63-.01-17.18,1.22-7.37,1.64-14.17,6.53-22.23,3-2.97,2.97-5.95,5.94-9.19,9.18-1.94-6.12-6.36-6.67-11.9-6.16-2.89,.26-6.02-1.28-8.93-2.3-10.28-3.61-18.88-9.78-25.6-18.24-4.87-6.13-9.48-12.56-13.41-19.33-4.73-8.14-8.7-16.73-12.83-25.21-2.36-4.85-4.69-9.76-6.41-14.86-.8-2.36-.14-5.21-.14-7.07-5.22-6.82-7.6-14.35-9.83-22.16-1.64-5.75,.19-12.22-3.83-17.47-.45-.59,1.04-2.41,.94-3.6-.26-3.01-.69-6.04-1.47-8.95-.95-3.54-3.11-6.9-3.4-10.45-1.22-14.59-2.42-29.22-2.69-43.84-.25-13.7,.01-27.49,1.37-41.11,.71-7.11,.96-14.2,.94-21.58h4.58c-1.22-2.87-2.33-5.47-3.44-8.06,4.36-1.75,.89-5.56,2.14-8.2,1.39-2.94,2.57-6.04,3.33-9.19,1.26-5.24,2.21-10.56,3.01-15.89,.16-1.03-.86-2.29-1.47-3.37-1.68-2.97-1.77-4.65,2.46-3.45,.5,.14,1.54-.39,1.8-.89,.27-.52,.06-1.92-.21-2-4.65-1.37-2.44-4.43-1.52-6.79,2.48-6.38,4.09-13.57,8.18-18.74,6.87-8.68,9.18-19.68,16.16-28.18,2.04-2.48,2.35-6.31,3.84-9.32,3.13-6.28,6.31-12.56,9.92-18.57,1.25-2.07,3.92-3.26,5.81-4.99,1.78-1.63,3.38-3.46,5.33-5.5-.08-.12,.31,.48,.5,.77,6-7.64,11.89-15.68,18.35-23.26,11.07-12.98,23.5-24.39,37.38-34.53,14.65-10.7,27.11-24.34,43.64-32.59,3.25-1.62,6.58-5.29,9.51-4.95,8.41,.98,14.01-5.49,21.4-6.54,3.02-.43,6.32,.68,9.23-.01,5.95-1.41,6.04-1.68,9.53,2.25,2.75-2.91,2.35-2.25,5.97-.04,3.97,2.43,8.78,3.49,13.6,5.28-.28-2.59-.5-4.72-.73-6.85l1.08-.3c1.11,3.25,2.21,6.49,3.73,10.93,.65-1.25,1.18-2.25,1.46-2.8,2.95,4.15,5.86,8.26,9.59,13.53,4.81,.43,8.52,4.32,10.51,10.56,2.25,7.05,5.31,13.86,7.38,20.96,.7,2.4-.55,5.37-1.09,9.5-2.96-3.83-4.35-6.13-6.22-7.92-2.17-2.07-4.31-4.12-7.52-.45-2.81,3.22-6.5,1.25-9.06-4.81-.87,2.11-1.55,3.76-2.39,5.79-7.28-8.28-15.04-4.99-23.12-1.57-13.17,5.57-25.03,13.27-35.32,22.93-8.24,7.73-15.13,16.91-22.61,25.46-2.57,2.94-5.25,5.81-7.63,8.9-2.41,3.11-4.32,6.61-6.79,9.66-10.97,13.57-20.04,28.37-28.21,43.7-2.98,5.6-4.56,11.93-6.89,17.88-2.51,6.41-5.3,12.72-7.64,19.2-.46,1.27,.28,3.22,.98,4.6,2.1,4.19,1.54,5.45-3.27,7.53-.8,.35-1.76,2.52-1.49,2.83,5.82,6.62,.3,13.74,.79,20.58,.54,7.47-1.04,15.1-1.83,24.19-1.31-2.35-1.74-3.14-2.27-4.07-.51,.41-1.31,.8-1.27,1.07,.41,2.76,.96,5.5,1.47,8.24,.32-.64,.65-1.27,1.81-3.56,.48,5.26,.81,8.83,1.13,12.42-5.46,.33-6.46,4.89-2.79,12.67,.16-2.77,.3-5.07,.44-7.37,2.81,3.29,2.17,16.48,.6,17.33,.55,4.54,1.08,8.48,1.48,12.44,.87,8.67,1.36,17.39,2.6,26,.94,6.51,2.66,12.92,4.28,19.32,1.64,6.5,4.4,12.83,5.21,19.41,1.43,11.63,7.06,21.49,11.62,31.84,3.58,8.14,7.15,9.02,14.52,4.33,2.25-1.44,5.33-1.51,7.8-2.68,1.73-.82,4.08-2.21,4.41-3.73,1.19-5.45,4.82-6.61,9.45-6.26,1.26-6.45,6.52-11.65,11.4-11.65,1.25-2.55,2.25-5.19,3.76-7.5,1.11-1.7,1.36-6.45,5.26-2.38,1.78-1.88,4.06-3.49,5.23-5.69,1.83-3.42,2.9-7.23,4.25-10.77,2.11-.14,3.89-.25,5.98-.38-.33-2.56-.6-4.58-.94-7.21,4.7,2.53,5.94,1.46,7.44-3.36,1.77-5.71,6.23-10.58,9.84-16.31,1.6,4.78,3.48,5.56,6.36,1.84,2.58-3.33,5.14-6.99,9.44-5.82v10.2c.63,.14,1.27,.27,1.9,.41,.94-1.89,1.89-3.79,2.81-5.64,9.37,3.78-1.13,10.7,1.64,15.54h9.96c1.34,4.11,2.65,8.15,3.97,12.2,1.76,2.23,3.38,4.61,5.45,6.51,.31,.28,2.71-1.71,4.14-2.65Zm-218.09,50.67l-.04-.03c1.63,3.68,6.14,6.61,3.02,11.53,.95,.45,1.91,.9,2.86,1.34,.96,1.62,1.93,3.25,2.89,4.87l3.85,12.54,1.52-.31c-.97,1.19-1.93,2.38-2.09,2.57,2.55,2.81,4.75,5.24,6.95,7.67-.14,.3-.27,.61-.41,.91,.15-.29,.3-.58,.45-.86,1.53,1.27,3.06,2.55,4.58,3.82,2.79,4.39,5.58,8.77,8.35,13.14,1.83-1.45,2.7-2.14,3.9-3.09,1.18,6.62,4.99,9.56,12.54,11.03-3.31-7.48-12.36-9.68-12.68-17.64-4.33,1.19-4-3.42-5.5-6.1-1.33-1.6-2.65-3.2-3.98-4.8-.12-.37-.24-.74-.36-1.12,.74-.89,1.49-1.78,2.23-2.66l-1.38-.26c0-1.56,0-3.13-.01-4.69,.37-1.1,.74-2.21,1.1-3.31l-1.55-.19c-.09,.92-.17,1.84-.26,2.75-1.02-5.37-6.05-4.31-9.44-5.87l.07,.05c1.15-1.03,2.31-2.06,3.46-3.09-3.48-1.51-2.19-7.34-6.97-7.67v.08l-.05-2.36c-.57-.83-1.13-1.66-1.7-2.48-.64-1.9-1.28-3.79-1.91-5.69l-3.26-3.61c-.02-1.58-.04-3.15-.06-4.73l2.45-.39-.04-.66c-.87-.06-1.75-.12-2.62-.18l-.28-1.33,2.03-1.43c-.55-.28-1.11-.56-1.66-.83-.25-2.15-.5-4.3-.85-7.39-.26-.08-2.07-.62-3.88-1.16-.92-6.43-1.82-12.86-2.78-19.29-.7-4.69-2.24-8.7-8.01-8.86,1.73-1.09,3.46-2.19,3.96-2.51-.95-3.69-1.83-7.09-2.71-10.49,3.87-1.3,2.66-3.37,.76-5.43-1.12-1.22-2.4-2.3-3.61-3.44-.13-1.76-.26-3.52-.4-5.28,3.83-1.73,4.21-5.29,1.95-9.79-1.04-2.07-1.68-5.77-.55-7.23,3.97-5.14,.5-7.4-2.71-10.34-1.02-.93-1.96-3.11-1.57-4.24,2.19-6.31,6.02-12.23,3.66-19.38l-1.26-5.63c.27-2,.54-3.99,.98-7.18,3.17-2.11,3.98-10.2,.34-16.83,.43-.38,1.19-.72,1.25-1.16,.7-4.68,1.54-9.36,1.79-14.07,.1-1.93-1.17-3.93-1.84-5.96,.24-.22,2.07-1.05,2.4-2.28,1.32-4.98,1.06-10.69,3.44-14.99,4.15-7.5,2.67-15.99,5.83-23.62,2.49-6.01,2.71-12.91,4.66-19.19,2.5-8.02,5.85-15.76,8.59-23.71,1.26-3.65,.9-8.29,3.07-11.1,6.21-8.04,6.94-17.55,9.59-26.03-2.9,.25-5.04,.43-7.25,.63-.25,1.54-.52,3.29-.85,5.35-.84-.65-1.34-.94-1.72-1.35-.42-.45-.73-1.01-1.14-1.6-2.81,4.39-2.64,4.22,.79,7.65,1.03,1.03,.78,3.33,1.11,5.05l-.67,.14c-.29-1.1-.59-2.19-1.25-4.64-1.01,4.56-1.74,7.84-2.54,11.45l-1.06-1.76c-2.53,1.67-4.75,3.14-6.98,4.63l-1.4-.08,.74,.79c.57,4.89-1.53,9.29-3.1,14.23,1.38-.53,2.16-.83,2.98-1.15-.01,9.67-.69,10.6-8.6,12.35-.8,2.18-1.5,4.18-2.26,6.15-1.87,4.85-3.81,9.67-5.61,14.54-.49,1.33-.56,2.82-.86,4.23-.83,3.92-1.68,7.83-2.52,11.74-2.08,1.68-3.49,3.57-1.44,7.71,.89,1.8,1.92,5.13-1.87,6.46-.29,.1,.23,2.59,.43,3.96,.36,2.37,1.83,5.3,.94,6.99-1.99,3.75-2.76,7.2,.05,10.37,2.62,2.96,1.91,4.61-1.08,6.31-4.13,2.35-3.59,4.39,.52,6.08l.2,.16c-.46,1.94-.92,3.87-1.37,5.81,.19,2.51,1.27,5.4,.39,7.46-2.44,5.76-3.25,11.42-1.52,17.43-.05,1.96-.11,3.92-.16,5.87,.4,1.5,.81,2.99,1.48,5.5-.61,.72-2.2,2.59-3.87,4.56,1.73,1.85,3.24,3.48,4.63,4.97-1.63,2.32-2.95,4.19-4.16,5.92,2.25,1.71,4.29,3.26,5.76,4.38-4.15,9.81-7.11,18.66-1.21,27.94l2.21,4.75,.03,1.19c-1.04,1.72-2.08,3.44-3.47,5.72l5.11,1.51c-.54,1.93-1.09,3.85-1.63,5.77-.56,1.24-1.85,2.73-1.53,3.67,.97,2.84,2.57,5.46,3.92,8.17,.39,2.32,.79,4.64,1.18,6.97l1.58,2.41c.21,.82,.41,1.64,.62,2.45l1.38,6.06,2.13,4.55-1.15,.89c1.01,2.26,1.96,3.97,2.55,5.79,1.22,3.79,2.25,7.64,3.36,11.47l.14,.16c0,.63-.01,1.27-.02,1.9Zm-20.38-129.72c-.12-.14-.27-.43-.35-.41-.33,.09-.65,.26-.96,.41,.13,.13,.29,.38,.39,.36,.32-.06,.62-.23,.92-.36Zm26.47-145.93l.7-.52c-.24-.21-.48-.58-.74-.6-.26-.02-.55,.29-.83,.46l.87,.66Z"/><path class="cls-3" d="M287.67,802.34c8.05,3.52,14.86-1.36,22.23-3,5.55-1.23,11.44-.96,17.18-1.22,.27-.01,.6,1.28,.9,1.96-1.43,1.5-2.67,3.3-4.37,4.41-1.36,.89-3.26,.95-5.51,1.54-.05,.22-.36,1.44-.54,2.17-7.99,1.1-15.52,2.13-23.75,3.27,.14-.78,.41-2.36,.69-3.93-.22-3.8-7.51,1.2-6.82-5.19Z"/><path class="cls-6" d="M1090.88,341.85c1.09-6.78,5.1-13.15,2.69-20.45-.24-.73,1.02-1.91,1.51-2.92,1.04-2.14,2.02-4.31,3.03-6.47,.35-1.7,.7-3.4,1.05-5.1,1.11-2.15,2.21-4.31,3.32-6.46,.48,1.59,.97,3.18,1.45,4.77l.03-.06c-3.53,1.31-4.47,3.57-2.55,6.89-.53,7.03-1.04,14.06-1.61,21.09-.14,1.73-.45,3.45-.68,5.17-2.75,1.18-5.49,2.36-8.24,3.54Z"/><path class="cls-2" d="M1044.71,657.89c-2.63-1.93-5.25-3.85-7.69-5.64-3.34,4.32-6.14,7.93-8.93,11.55h-.01c.7-4.6,1.44-9.19,2.08-13.8,.24-1.74,.24-3.52,.34-5.28,.64-.87,1.28-1.74,1.97-2.69,2.56,1.46,5.79,2.49,7.8,4.65,2.57,2.76,4.19,6.41,6.11,9.75,.07,.13-1.08,.96-1.66,1.46Z"/><path class="cls-2" d="M1054.26,683.03c-1.79-2.45-3.59-4.91-5.11-6.99-1.53,.42-1.94,.43-2.24,.63-2.21,1.43-4.4,2.89-6.6,4.34,.1-3.34-.28-6.78,.43-9.99,.82-3.73,2.6-7.25,3.96-10.87,.93,1.59,5.4,2.27,.81,5.35-1.19,.8,.21,5.46,.92,9.09,2.89-6.36,7.42-3.07,8.52-1.05,1.28,2.34-.33,6.26-.68,9.49Z"/><path class="cls-1" d="M1013.85,622.51c-5,8.42-10.39,16.38-21.34,17.59,2.64-2.76,5.25-5.55,7.94-8.26,3.52-3.54,7.06-7.06,10.75-10.42,.3-.27,1.74,.69,2.65,1.09Z"/><path class="cls-2" d="M829.1,318.15c-1.2,.79-2.39,1.58-3.59,2.38-1.98-1.59-3.96-3.18-5.94-4.78l.11,.06c-.39-3.52,2.57-6.58,5.8-5.9,2,.42,3.97,1,5.96,1.51-.78,2.24-1.56,4.49-2.34,6.73Z"/><path class="cls-6" d="M1510.48,675.64c.32,.24,.64,.48,.97,.72-1.41,.93-2.83,1.86-4.42,2.91,1.63,1.18,3.07,2.22,4.63,3.34-1.84,2.29-2.88,3.57-3.91,4.85-2.14-.92-4.2-2.26-6.43-2.68-4.74-.88-1.41-3.77-1.71-5.74,3.62-1.13,7.25-2.27,10.87-3.4Z"/><path class="cls-6" d="M760.31,767.79c.1-1.51,.2-3.03,.32-4.82,4.35,.42,8.55,.83,12.75,1.24-.54,1.85-1.07,3.69-1.74,5.97-1.19-.97-2.3-1.87-3.68-2.99-.83,.92-1.69,1.88-2.55,2.84-1.7-.75-3.4-1.5-5.11-2.24Z"/><path class="cls-6" d="M1291.92,626.8c-.7-1.09-1.28-2.28-2.12-3.24-1.22-1.4-2.63-2.63-3.39-3.37,1.95-2.5,3.19-4.1,4.44-5.7,.93-.15,1.85-.29,1.26-.2,1.83,4.03,3.48,7.67,5.14,11.31-1.6,.57-3.2,1.15-4.8,1.73-.17-.18-.35-.36-.53-.53Z"/><path class="cls-2" d="M1032.81,689.58c2.26-2.25,4.5-4.52,6.87-6.64,.08-.07,2.35,1.98,2.26,2.11-1.99,2.86-4.17,5.59-6.31,8.34-.94-1.27-1.88-2.54-2.82-3.81Z"/><path class="cls-1" d="M1210.43,752.37c-1.05-3.37,.93-4.27,3.69-4.54,1.57,1.98,3.14,3.96,4.72,5.94l-.08-.05c-.65,1.78-1.3,3.56-1.67,4.59-2.83-2.52-4.74-4.23-6.66-5.94Z"/><path class="cls-6" d="M432.41,671.17c-1.43,.94-3.83,2.93-4.14,2.65-2.06-1.9-3.68-4.28-5.45-6.51,3.8-.22,7.35,.19,9.58,3.85Z"/><path class="cls-1" d="M938.19,274.27c-4.67,.05-10.19,3.66-13.25-3.13,4.6,.26,9.85-2.2,13.25,3.13Z"/><path class="cls-2" d="M1034.03,698.05c-.43,.82-.86,1.65-1.29,2.47-.11-1.33-.21-2.67-.32-4,.53,.51,1.07,1.02,1.6,1.53Z"/><path class="cls-1" d="M922.72,270.97c-.35,1.54-.69,3.08-1.04,4.62,.35-1.54,.69-3.08,1.04-4.62Z"/><path class="cls-2" d="M996.12,739.87c-.02,1.51-.04,3.01-.06,4.52-2.29-1.54-3.82-3.06,.06-4.52Z"/><path class="cls-2" d="M1031.64,705.22c-.33,0-.67,0-1-.03-.28-.57-.56-1.15-.85-1.72,.35-.09,.96-.32,1-.24,.34,.63,.58,1.32,.85,2Z"/><path class="cls-7" d="M881.01,284.77c1-.24,2.01-.48,3.01-.72l.07,.7c-.93,.12-1.86,.23-2.79,.35l-.29-.33Z"/><path class="cls-7" d="M1006.84,719.32c.75,.43,1.5,.86,2.24,1.29-.2,.26-.4,.52-.6,.78-.58-.65-1.15-1.3-1.73-1.95l.09-.12Z"/><path class="cls-5" d="M1709.2,467.35c.13-.49,.26-.98,.06-.23,.48-.55,.17-.2-.14,.16l.07,.08Z"/><path class="cls-5" d="M1588.38,263.68c-.16-.08-.35-.14-.48-.26-.06-.05-.03-.22-.03-.34,.14,.22,.28,.45,.42,.67l.1-.08Z"/><path class="cls-5" d="M1163.3,564.14c.24,.21,.5,.4,.71,.63,.03,.04-.18,.29-.28,.45-.21-.28-.42-.56-.64-.84l.21-.24Z"/><path class="cls-5" d="M1510.19,708.81c.06-.14,.09-.29,.18-.4,.05-.06,.19-.05,.29-.07-.18,.14-.35,.27-.53,.41l.07,.07Z"/><path class="cls-7" d="M1006.7,351.35l.54,.09c-.16-.06-.31-.12-.47-.18l-.07,.09Z"/><path class="cls-8" d="M532.94,783.3c-.08,.15-.13,.33-.24,.45-.05,.06-.21,.03-.32,.05,.21-.13,.43-.27,.64-.4l-.08-.1Z"/><path class="cls-5" d="M1680.67,496.96l.94,.11c-.29-.07-.57-.15-.86-.22l-.08,.11Z"/><path class="cls-6" d="M1093.13,395.08c.4,1.41,1.19,2.83,1.12,4.22-.27,6.24-.57,12.5-1.33,18.69-.29,2.4-1.82,4.64-2.41,6.08,.85,3.65,1.95,6.68,2.19,9.78,.64,8.25,.97,16.52,1.27,24.79,.05,1.24-1.07,2.53-1,3.76,.07,1.27,.93,2.49,1.45,3.73l-.03-.03c.71,7.52,1.57,15.03,2.07,22.57,.18,2.66-.5,5.37-.79,8.06-2.68,2.5-5.35,5.01-8.03,7.51-.57-4.07-1.58-8.14-1.58-12.21,0-4.3,.95-8.6,1.48-12.91,.82-.05,2,.24,2.39-.19,2.68-2.99,.73-10.21-3.59-13.72-.68-8.94-2.48-17.99-1.67-26.79,.59-6.32-1.56-12.35-.32-18.51,.07-.35-.29-1.05-.21-1.09,5.49-2.65-1.27-8.2,2.65-11.37,.47-.38-.48-2.5-.76-3.82,.44-1.39,1.35-2.84,1.22-4.17-.5-4.98,2.09-5.37,5.87-4.39Z"/><path class="cls-1" d="M1109.8,631.82c1.27,3.51,2.9,6.94,3.67,10.55,.42,1.97-.62,4.25-.99,6.35,4.66,.58,4.86,1.18,1.82,8.32-.96-1.49-1.93-2.97-3.09-4.76-1.2,.26-3.22,.7-5.24,1.14-7.95-10.27-9.19-25.88-2.43-34.43,2.37,2.51,7.72,3.39,3.51,8.82-.3,.39,1.79,2.64,2.77,4.02l-.02-.02Z"/><path class="cls-3" d="M1518.51,383.52c-1.22,6.7,.05,14-5.49,19.67-.91,.94,.35,3.99,.62,6.19-2.09,.81-3.99,1.56-5.89,2.3-.35,0-.71-.02-1.06-.03-3.44-7.71-1.29-14.75,2.54-21.65-3.33-3.35-1.97-8.51,3.15-11.52,.14,1.86,.28,3.73,.48,6.28,1.54-.34,3.6-.79,5.66-1.24Z"/><path class="cls-1" d="M1135.85,718.07c1.42-1.16,2.84-2.33,4.26-3.49,2.25,.58,4.51,1.16,6.77,1.74l-1.28,.88c2.28,3.93,4.55,7.86,7.06,12.19-.32,.9-.91,2.58-1.44,4.09,2.56,1.9,3.68-6.3,6.01-.02,.29,1.64,.34,3.38,.95,4.89,.53,1.31,1.69,2.37,2.57,3.55-1.39,.4-3.33,1.58-4.06,1.06-3.17-2.24-6.27-4.73-8.87-7.6-4.72-5.22-9.79-10.28-11.96-17.29Z"/><path class="cls-6" d="M1094.41,577.48c1.94-2.05,3.88-4.1,5.82-6.15,1.4,8.14,3.59,16.16,1.89,24.62-.39,1.94,1.24,4.29,1.94,6.44-2.03,.34-4.06,.69-6.09,1.03-.86-1.11-1.73-2.23-2.59-3.34-.4-2.18-1.33-4.41-1.1-6.52,.61-5.38-3.21-10.77,.13-16.08Z"/><path class="cls-3" d="M1710.35,392.73c-.78-1.69-2.17-3.36-2.24-5.08-.27-6.31-.11-12.65-1.33-18.7,1.29-1.84,2.58-3.69,3.87-5.53-.51-.35-1.01-.7-1.52-1.06-.74,.92-1.49,1.83-2.18,2.69-.49-.22-.78-.27-.81-.39-2.33-8.15-4.64-16.3-6.96-24.46l1.31-.71c1.32,2.64,2.65,5.26,3.95,7.91,1.62,3.31,.59,7.86,5.98,9.5,1.55,.47,1.95,6.01,2.17,9.27,.35,5.18,.21,10.41,.06,15.62-.05,1.64-.83,3.26-1.43,5.41,.86,.45,2.07,1.08,3.3,1.73-1.57,1.43-2.87,2.61-4.17,3.79h0Z"/><path class="cls-1" d="M1506.69,411.66c.35,0,.71,.02,1.06,.03,3.77-.62,5.38,1.09,5.22,4.79-.22,5.21-.4,10.42-.6,15.64-1.94,4.23-3.87,8.46-5.81,12.68-1.8-7.96-3.35-15.89,2.32-23.1-1.52-.18-3.04-.36-4.55-.54,.28-1.5,.49-3.02,.86-4.51,.42-1.68,.99-3.32,1.49-4.98Z"/><path class="cls-3" d="M1703.45,416.53c.03-.78-.25-1.86,.15-2.28,1.74-1.81,6-1.97,3.76-6.24-1.22-2.32-2.3-4.72-3.75-7.72,2.01-2.25,4.37-4.91,6.74-7.56h0c1.34-.09,2.69-.17,4.83-.31-.42,4.88-.67,9.68-1.3,14.43-.38,2.88-1.36,5.67-2.08,8.5-.55-.36-1.21-1.13-1.63-1.02-2.27,.61-4.49,1.44-6.72,2.19Z"/><path class="cls-3" d="M1425.99,763.23c-2.54,.96-5.08,1.93-7.61,2.89-.22,.2-.42,.42-.6,.65-.79,.79-1.58,1.58-2.36,2.36h-.01c-2.86-1.65-5.71-3.31-9.65-5.59,5.23-3.1,8.47-5.19,13.18-2.44,1.67,.97,4.84-.25,7.2-.93,4.03-1.15,6.57-.3,7.04,4.23-1.99-.03-3.98-.06-5.97-.08-.41-.36-.81-.73-1.22-1.09Zm4.13,.46c.11-.35,.17-.57,.24-.79-.14,.04-.39,.07-.4,.13-.02,.16,.07,.33,.16,.66Z"/><path class="cls-6" d="M1119.55,675.59c-1.01-1.37-2.03-2.74-3.71-5-1.72,2.25-3.21,4.18-4.69,6.11-5.01-3.26-.8-4.74,1.77-6.6-1.45-1.17-2.6-2.09-3.54-2.85,.97-1.92,1.84-3.64,2.7-5.37,.2-.37,.51-.54,.92-.52,2.52,.78,5.04,1.57,6.57,2.04,.91,3.2,1.69,5.94,2.47,8.69l1.87,.16c-1.45,1.11-2.91,2.22-4.36,3.32Z"/><path class="cls-1" d="M1097.96,603.42c2.03-.35,4.06-.69,6.09-1.03,.33,3.34,.67,6.67,1.04,10.41q-8.09,5.58-10.23,3.68c.73-2.67,1.35-4.93,1.97-7.19-.06-.37-.12-.75-.19-1.12-.36,0-.71-.02-1.06-.08,.79-1.56,1.58-3.12,2.37-4.67h0Z"/><path class="cls-1" d="M1099.03,559.67c-3.96-3.62-4.5-13.74-.89-16.61,1.1,.76,3.2,1.63,3.14,2.26-.51,4.81-1.45,9.57-2.25,14.34Z"/><path class="cls-1" d="M1474.51,747.09c-4.25,2.97-8.49,5.94-13.44,9.4,.64-2.66,.49-6.05,2.1-7.82,2.3-2.52,5.08-6.19,11.34-1.58Z"/><path class="cls-1" d="M1709.14,422.3c.3,2.3,2.24,5.05-1.87,6.14-.3,.08-.04,2.24-.04,2.29-2.19,2.15-3.91,3.84-7,6.89,.69-3.46,.94-5.76,1.64-7.92,1.07-3.3,2.45-6.5,3.69-9.74,1.19,.78,2.39,1.56,3.58,2.34Z"/><path class="cls-4" d="M1510.48,675.64c-3.62,1.13-7.25,2.27-10.87,3.4,1.8-3.96,3.6-7.92,6.11-13.42,2.22,4.67,3.49,7.35,4.77,10.02Z"/><path class="cls-3" d="M1533.27,575c2.15,3,4.55,5.86,6.27,9.08,.42,.79-1.39,2.76-3.02,5.73-2.34-5.67-3.95-9.55-5.55-13.44,.77-.46,1.53-.92,2.3-1.38Z"/><path class="cls-3" d="M1418.38,766.12c1.92,2.34,6.74-2.28,7.41,3.08-1.07,.28-2.4,.26-3.16,.9-1.67,1.42-3.06,3.17-4.56,4.78-.89-1.91-1.78-3.83-2.67-5.74h.01c.79-.8,1.58-1.59,2.36-2.38,.18-.23,.38-.45,.6-.65Z"/><path class="cls-6" d="M1446.21,760.86c2.32-1.39,4.63-2.78,6.95-4.16l1.01,1.34c-.92,2.34-1.84,4.67-2.8,7.1-1.88-1.56-3.52-2.92-5.17-4.29h.01Z"/><path class="cls-6" d="M1709.14,422.3c-1.19-.78-2.39-1.56-3.58-2.34-.71-1.15-1.41-2.29-2.12-3.44,2.24-.75,4.45-1.58,6.72-2.19,.42-.11,1.08,.65,1.63,1.02-.88,2.32-1.77,4.63-2.65,6.95Z"/><path class="cls-6" d="M1443.67,769.01c.49-2.74,.99-5.48,1.48-8.22,.35,.02,.7,.04,1.06,.06h-.01c.16,1.89,.7,3.85,.35,5.64-.19,.99-1.87,1.68-2.87,2.51Z"/><path class="cls-9" d="M1101.4,312.05c-1.91-3.32-.98-5.59,2.55-6.89-.85,2.3-1.7,4.59-2.55,6.89Z"/><path class="cls-1" d="M1095.37,600.08c.86,1.11,1.73,2.23,2.59,3.34h0c-1.21,.77-2.41,1.55-3.62,2.33,.34-1.89,.68-3.78,1.02-5.67Z"/><path class="cls-6" d="M1094.35,605.75c1.21-.78,2.41-1.55,3.62-2.33-.79,1.56-1.58,3.12-2.37,4.67-.42-.78-.83-1.56-1.25-2.34Z"/><path class="cls-6" d="M1107.39,661.38c.68-1.21,1.36-2.42,2.03-3.63,.44,.2,.87,.4,1.31,.61-.39,1.06-.77,2.12-1.16,3.18-.73-.05-1.46-.11-2.19-.16Z"/><path class="cls-9" d="M1099.15,306.91c-.35,1.7-.7,3.4-1.05,5.1,.35-1.7,.7-3.4,1.05-5.1Z"/><path class="cls-9" d="M1535.73,375.63c-.41,.5-.81,.99-1.22,1.49-.2-.12-.4-.24-.6-.36,.33-.63,.66-1.27,.99-1.9,.3,.22,.58,.48,.82,.77Z"/><path class="cls-9" d="M1682.97,486.35c-.22-.62-.45-1.23-.67-1.85,.48,.42,.96,.83,1.45,1.24-.26,.2-.51,.4-.77,.61Z"/><path class="cls-9" d="M1715.13,728.85c-.3-.09-.6-.19-.9-.28,.17-.16,.34-.33,.52-.49,.1,.29,.19,.58,.29,.87l.1-.1Z"/><path class="cls-6" d="M1096.66,608.17c.06,.37,.12,.75,.19,1.12-.07-.37-.13-.75-.19-1.12Z"/><path class="cls-9" d="M1262.58,622.38c.29,.2,.58,.39,.88,.59-.26-.22-.53-.44-.79-.66l-.08,.07Z"/><path class="cls-1" d="M1115.15,657.5l-.04-.12c.33-.05,.66-.09,1-.14-.32,.09-.64,.17-.96,.26Z"/><path class="cls-6" d="M1094.43,466.13c.08-.15,.16-.3,.24-.46-.09,.14-.18,.28-.27,.43l.03,.03Z"/><path class="cls-9" d="M1442.01,454.55l.32,.35c-.13,.09-.27,.26-.39,.25-.12-.01-.22-.21-.32-.33,.13-.09,.26-.18,.39-.27Z"/><path class="cls-6" d="M1292.44,627.33l-.78,.67c.09-.4,.17-.8,.26-1.2,.18,.17,.35,.35,.52,.53Z"/><path class="cls-1" d="M1109.82,631.84l.26-.5c-.09,.16-.18,.32-.28,.48l.02,.02Z"/><path class="cls-9" d="M1366.69,428.88c-.13,.09-.27,.26-.39,.25-.12-.01-.21-.21-.32-.33,.13-.09,.27-.26,.39-.25,.12,.01,.21,.21,.32,.33Z"/><path class="cls-6" d="M919.65,520.39c.59,1.69,1.18,3.39,1.77,5.08-2.01,.29-4.03,.58-6.04,.87-.38-1.34-.76-2.68-1.1-3.89-.95,.78-1.65,1.35-2.35,1.93-.41-1.27-.82-2.55-1.23-3.82,2.97-.65,5.9-3.71,8.95-.17Z"/><path class="cls-9" d="M864.01,357.74c.53,.7,1.05,1.4,1.58,2.11-.46,.23-.92,.46-1.38,.69l-.87-2.04c.26-.22,.49-.47,.67-.76Z"/><path class="cls-9" d="M847.7,300.06l2.04,1.03c-.83,.07-1.66,.14-2.5,.21,.15-.41,.3-.83,.45-1.24Z"/><path class="cls-9" d="M806.67,645.76c-.06-.82-.12-1.65-.17-2.47l.78-.06c.08,.83,.16,1.65,.24,2.48l-.84,.06Z"/><path class="cls-9" d="M877.25,290.23c-.31,.16-.59,.41-.89,.42-.13,0-.29-.44-.44-.69l.94-.49c.13,.25,.26,.5,.4,.76Z"/><path class="cls-9" d="M1008.65,448.98l-1.54,1.1c.25-.6,.49-1.2,.74-1.8,.29,.21,.56,.45,.8,.71Z"/><path class="cls-2" d="M1028.09,663.8c-.09,.16-.18,.33-.28,.49,.09-.17,.18-.33,.27-.5h.01Z"/><path class="cls-9" d="M863.33,358.49c-.24-.27-.49-.53-.73-.8,.47,.02,.94,.04,1.41,.05-.19,.28-.41,.53-.67,.75Z"/><path class="cls-9" d="M857.08,716.62l1.39-.15c-.23,.28-.45,.57-.68,.85-.24-.23-.48-.47-.71-.7Z"/><path class="cls-3" d="M607.58,576.15c7.51-2.32,15.02-4.63,22.89-7.06l-3.19,8.1c-.96-.23-2.78-.47-4.45-1.1-3.33-1.27-6.04-2.51-7.61,2.65-.42,1.38-4.98,1.49-7.64,2.18-.89-.56-1.79-1.12-2.17-1.36,.87-1.38,1.52-2.4,2.17-3.42Z"/><path class="cls-3" d="M651.42,569.09c-1.3,.34-3.06,.26-3.82,1.09-2.95,3.23-5.29,2.6-7.7-1.41-1.65,2.4-2.96,4.32-4.38,6.39-3-5.34-2.45-6.99,2.56-8.14,5.39-1.24,10.82-2.29,17.67-3.73-1.95,2.61-3.14,4.2-4.33,5.79h0Z"/><path class="cls-1" d="M607.58,576.15c-.65,1.02-1.3,2.04-2.17,3.42,.38,.24,1.28,.8,2.17,1.36-2.36,.8-4.73,1.6-7.09,2.4-2.01-.83-4.01-1.66-6.02-2.49,4.37-1.56,8.74-3.13,13.11-4.69Z"/><path class="cls-3" d="M594.47,580.85c2.01,.83,4.01,1.66,6.02,2.49-1.94,.39-3.89,.79-5.83,1.18-1.6,.38-3.2,.75-4.81,1.13-.79-.78-1.57-1.57-2.36-2.35,1.17-.78,2.33-1.56,3.5-2.33l3.47-.1Z"/><path class="cls-1" d="M589.85,585.64c1.6-.38,3.2-.75,4.81-1.13-1.6,.38-3.2,.75-4.81,1.13Z"/><path class="cls-1" d="M590.99,580.95c-1.17,.78-2.34,1.56-3.5,2.33,1.17-.78,2.34-1.56,3.5-2.33Z"/><path class="cls-3" d="M651.41,569.1c.31,.43,.61,.87,.92,1.3l-.47,.3-.44-1.61h0Z"/><polygon class="cls-9" points="765.69 637.32 765.61 636.95 765.89 637 765.69 637.32"/><path class="cls-3" d="M197.9,648.42c-5.9-9.28-2.95-18.12,1.21-27.94-1.48-1.12-3.51-2.67-5.76-4.38,1.22-1.73,2.53-3.6,4.16-5.92-1.39-1.49-2.91-3.12-4.63-4.97,1.67-1.97,3.26-3.84,3.87-4.56-.68-2.51-1.08-4-1.48-5.5,2.77-.41,5.54-.82,8.3-1.23,2.35,7.15-1.47,13.08-3.66,19.38-.39,1.13,.55,3.31,1.57,4.24,3.21,2.94,6.68,5.2,2.71,10.34-1.13,1.46-.48,5.16,.55,7.23,2.26,4.5,1.89,8.06-1.95,9.79-.95-1.46-1.9-2.91-2.93-4.49-.76,3.1-1.36,5.55-1.96,8.01Z"/><path class="cls-3" d="M204.79,672.05c5.77,.15,7.3,4.17,8.01,8.86,.96,6.42,1.86,12.86,2.78,19.29-1.64-.99-3.21-2.14-4.95-2.9-.95-.42-2.2-.16-3.31-.21-.46-2.02-.92-4.04-1.38-6.06,1.1,.93,2.19,1.86,4.55,3.86-2.29-6.59-.64-13.26-7.93-15.69-1.35-2.71-2.95-5.33-3.92-8.17-.32-.94,.97-2.43,1.53-3.67,1.54,1.57,3.09,3.13,4.63,4.7Z"/><path class="cls-1" d="M196.55,564.39c2.35-.03,4.71-.07,7.06-.1,3.64,6.63,2.83,14.72-.34,16.83-.43,3.18-.7,5.18-.98,7.18-1.3-.68-2.61-1.36-3.71-1.93-1.06,.98-2.12,1.95-3.17,2.92-1.72-6.01-.92-11.67,1.52-17.43,.87-2.06-.21-4.95-.39-7.46Z"/><path class="cls-6" d="M237.9,765.89c2.2-.89,4.41-1.78,6.61-2.67,1.5,2.69,1.18,7.29,5.5,6.11,.32,7.96,9.37,10.17,12.68,17.64-7.55-1.47-11.36-4.41-12.54-11.03-1.2,.95-2.08,1.65-3.9,3.09-2.78-4.37-5.56-8.76-8.35-13.14Z"/><path class="cls-6" d="M220.16,734.69c1.84-2.37,3.68-4.73,5.51-7.1,.57,.83,1.13,1.66,1.7,2.48-.57,.49-1.13,.98-1.7,1.46,.59,.3,1.18,.6,1.76,.9v-.08l-.69,3.67,1.79,.77c-1.83,.93-3.65,1.86-5.48,2.79-.97-1.63-1.93-3.25-2.89-4.88Z"/><path class="cls-3" d="M200.11,653.16c1.03-.99,2.06-1.99,3.08-2.98,1.21,1.14,2.49,2.22,3.61,3.44,1.9,2.06,3.11,4.13-.76,5.43-1.97-1.57-3.93-3.14-5.9-4.7,0-.4-.02-.79-.03-1.19Z"/><path class="cls-1" d="M223.76,721.9c-3.16-.03-6.32-.06-9.48-.09l.04,.03c0-.63,0-1.27,.01-1.9l-.14-.16c2.1-.5,4.2-1,6.3-1.5,1.09,1.2,2.18,2.41,3.26,3.61Z"/><path class="cls-3" d="M203.73,686.16c.8,.25,1.6,.49,2.41,.74-.27,.56-.54,1.12-.82,1.67-.53-.8-1.06-1.61-1.59-2.41Z"/><path class="cls-9" d="M240.31,748.93c.09-.92,.17-1.84,.26-2.75l1.55,.19c-.37,1.1-.74,2.21-1.1,3.31-.26-.23-.49-.48-.71-.75Z"/><path class="cls-1" d="M219.94,711.01c.12-.75,.25-1.51,.37-2.26,.55,.28,1.11,.56,1.66,.83l-2.03,1.43Z"/><path class="cls-1" d="M220.43,713.56c-.07-.41-.14-.81-.21-1.22,.87,.06,1.75,.12,2.62,.18l.04,.66c-.82,.13-1.64,.26-2.45,.39Z"/><path class="cls-9" d="M227.44,732.43c-.59-.3-1.18-.6-1.76-.9,.57-.49,1.13-.98,1.7-1.46,.02,.79,.04,1.57,.07,2.36Z"/><path class="cls-4" d="M240.53,758.41l-1.97,.34c.54-.48,1.08-.97,1.62-1.45,.12,.37,.24,.74,.36,1.12Z"/><path class="cls-4" d="M193.94,592.13c-.3,.13-.6,.3-.92,.36-.1,.02-.26-.23-.39-.36,.32-.14,.63-.32,.96-.41,.07-.02,.23,.26,.35,.41Z"/><path class="cls-9" d="M220.41,446.2l-.87-.66c.28-.17,.57-.48,.83-.46,.26,.02,.49,.39,.74,.6l-.7,.52Z"/><path class="cls-4" d="M233.32,762.07l-.45,.86c.14-.3,.27-.61,.41-.91l.04,.04Z"/><path class="cls-9" d="M220.17,448.44l-.74-.79c.47,.03,.93,.05,1.4,.07-.19,.26-.41,.51-.66,.72Z"/><path class="cls-4" d="M214.33,719.95c0,.63,0,1.27-.01,1.9,0-.63,0-1.27,.01-1.9Z"/><polygon class="cls-5" points="1092.57 506.81 1092.89 506.74 1092.83 507.01 1092.57 506.81"/><path class="cls-5" d="M1114.17,679.55c-.02-.44-.04-.88-.05-1.31,.31,.15,.61,.29,.92,.44-.29,.29-.58,.58-.87,.88Z"/><path class="cls-5" d="M1125,698.83l-.38,.35c-.1-.14-.3-.28-.29-.41,0-.13,.22-.25,.34-.38l.34,.44Z"/><path class="cls-5" d="M1132.28,704.54c-.15,.1-.31,.3-.43,.28-.13-.02-.21-.26-.32-.41,.15-.1,.31-.3,.43-.28,.12,.02,.21,.26,.32,.41Z"/><path class="cls-5" d="M1425.99,763.23c.41,.36,.81,.73,1.22,1.09-.41-.36-.81-.73-1.22-1.09Z"/><path class="cls-5" d="M1417.78,766.77c-.79,.79-1.58,1.58-2.36,2.36,.79-.79,1.58-1.58,2.36-2.36Z"/><path class="cls-5" d="M1430.12,763.69c-.09-.33-.17-.5-.16-.66,0-.06,.26-.09,.4-.13-.07,.22-.13,.43-.24,.79Z"/><path class="cls-7" d="M900.23,528.9c.03-.27,.07-.55,.1-.82-.06,.25-.13,.5-.19,.75l.09,.07Z"/><path class="cls-5" d="M197.73,558.42l.16-2.8c.31,.06,.63,.12,.94,.18-.31,.92-.61,1.85-.91,2.78,0,0-.19-.16-.19-.16Z"/><path class="cls-5" d="M230.86,743.06c-.14,.63-.28,1.27-.42,1.9l-.53-.22c.34-.55,.68-1.09,1.02-1.64l-.07-.05Z"/></svg>